*
*
G04 PADS 9.4.1 Build Number: 494907 generated Gerber (RS-274-X) file*
G04 PC Version=2.1*
*
%IN "PiLightControl.pcb"*%
*
%MOIN*%
*
%FSLAX35Y35*%
*
*
*
*
G04 PC Standard Apertures*
*
*
G04 Thermal Relief Aperture macro.*
%AMTER*
1,1,$1,0,0*
1,0,$1-$2,0,0*
21,0,$3,$4,0,0,45*
21,0,$3,$4,0,0,135*
%
*
*
G04 Annular Aperture macro.*
%AMANN*
1,1,$1,0,0*
1,0,$2,0,0*
%
*
*
G04 Odd Aperture macro.*
%AMODD*
1,1,$1,0,0*
1,0,$1-0.005,0,0*
%
*
*
G04 PC Custom Aperture Macros*
*
*
*
*
*
*
G04 PC Aperture Table*
*
%ADD010C,0.001*%
%ADD022C,0.01*%
%ADD037C,0.008*%
%ADD038C,0.006*%
%ADD039C,0.00787*%
%ADD040C,0.005*%
*
*
*
*
G04 PC Circuitry*
G04 Layer Name PiLightControl.pcb - circuitry*
%LPD*%
*
*
G04 PC Custom Flashes*
G04 Layer Name PiLightControl.pcb - flashes*
%LPD*%
*
*
G04 PC Circuitry*
G04 Layer Name PiLightControl.pcb - circuitry*
%LPD*%
*
G54D10*
G54D22*
G01X157900Y193900D02*
G75*
G03Y183900I-9404J-5000D01*
G01X158100Y184100D02*
Y194100D01*
X192900Y193900D02*
G03Y183900I-9404J-5000D01*
G01X193100Y184100D02*
Y194100D01*
X227900Y193900D02*
G03Y183900I-9404J-5000D01*
G01X228100Y184100D02*
Y194100D01*
X262900Y193900D02*
G03Y183900I-9404J-5000D01*
G01X263100Y184100D02*
Y194100D01*
X297900Y193900D02*
G03Y183900I-9404J-5000D01*
G01X298100Y184100D02*
Y194100D01*
X99874Y317537D02*
X235874D01*
Y294037*
X99874*
Y317537*
X99900Y256400D02*
X156600D01*
Y291800*
X99900*
Y256400*
X138350Y156300D02*
Y120300D01*
X171450*
Y156300*
X138350*
X173350D02*
Y120300D01*
X206450*
Y156300*
X173350*
X208350D02*
Y120300D01*
X241450*
Y156300*
X208350*
X243350D02*
Y120300D01*
X276450*
Y156300*
X243350*
X278350D02*
Y120300D01*
X311450*
Y156300*
X278350*
X103350D02*
Y120300D01*
X136450*
Y156300*
X103350*
X122900Y193900D02*
G03Y183900I-9404J-5000D01*
G01X123100Y184100D02*
Y194100D01*
X205394Y170866D02*
G03X205394I-5000J0D01*
G01X163564Y238863D02*
X163109Y238550D01*
X162655Y237925*
X162427Y237300*
X162200Y236363*
Y234800*
X162427Y233863*
X162655Y233238*
X163109Y232613*
X163564Y232300*
X164473*
X164927Y232613*
X165382Y233238*
X165609Y233863*
X165836Y234800*
Y236363*
X165609Y237300*
X165382Y237925*
X164927Y238550*
X164473Y238863*
X163564*
X164245Y233550D02*
X165609Y231675D01*
X167882Y237613D02*
X168336Y237925D01*
X169018Y238863*
Y232300*
X198564Y238863D02*
X198109Y238550D01*
X197655Y237925*
X197427Y237300*
X197200Y236363*
Y234800*
X197427Y233863*
X197655Y233238*
X198109Y232613*
X198564Y232300*
X199473*
X199927Y232613*
X200382Y233238*
X200609Y233863*
X200836Y234800*
Y236363*
X200609Y237300*
X200382Y237925*
X199927Y238550*
X199473Y238863*
X198564*
X199245Y233550D02*
X200609Y231675D01*
X203109Y237300D02*
Y237613D01*
X203336Y238238*
X203564Y238550*
X204018Y238863*
X204927*
X205382Y238550*
X205609Y238238*
X205836Y237613*
Y236988*
X205609Y236363*
X205155Y235425*
X202882Y232300*
X206064*
X233564Y238863D02*
X233109Y238550D01*
X232655Y237925*
X232427Y237300*
X232200Y236363*
Y234800*
X232427Y233863*
X232655Y233238*
X233109Y232613*
X233564Y232300*
X234473*
X234927Y232613*
X235382Y233238*
X235609Y233863*
X235836Y234800*
Y236363*
X235609Y237300*
X235382Y237925*
X234927Y238550*
X234473Y238863*
X233564*
X234245Y233550D02*
X235609Y231675D01*
X238336Y238863D02*
X240836D01*
X239473Y236363*
X240155*
X240609Y236050*
X240836Y235738*
X241064Y234800*
Y234175*
X240836Y233238*
X240382Y232613*
X239700Y232300*
X239018*
X238336Y232613*
X238109Y232925*
X237882Y233550*
X268564Y238863D02*
X268109Y238550D01*
X267655Y237925*
X267427Y237300*
X267200Y236363*
Y234800*
X267427Y233863*
X267655Y233238*
X268109Y232613*
X268564Y232300*
X269473*
X269927Y232613*
X270382Y233238*
X270609Y233863*
X270836Y234800*
Y236363*
X270609Y237300*
X270382Y237925*
X269927Y238550*
X269473Y238863*
X268564*
X269245Y233550D02*
X270609Y231675D01*
X275155Y238863D02*
X272882Y234488D01*
X276291*
X275155Y238863D02*
Y232300D01*
X303564Y238863D02*
X303109Y238550D01*
X302655Y237925*
X302427Y237300*
X302200Y236363*
Y234800*
X302427Y233863*
X302655Y233238*
X303109Y232613*
X303564Y232300*
X304473*
X304927Y232613*
X305382Y233238*
X305609Y233863*
X305836Y234800*
Y236363*
X305609Y237300*
X305382Y237925*
X304927Y238550*
X304473Y238863*
X303564*
X304245Y233550D02*
X305609Y231675D01*
X310836Y238863D02*
X308564D01*
X308336Y236050*
X308564Y236363*
X309245Y236675*
X309927*
X310609Y236363*
X311064Y235738*
X311291Y234800*
X311064Y234175*
X310836Y233238*
X310382Y232613*
X309700Y232300*
X309018*
X308336Y232613*
X308109Y232925*
X307882Y233550*
X128564Y238863D02*
X128109Y238550D01*
X127655Y237925*
X127427Y237300*
X127200Y236363*
Y234800*
X127427Y233863*
X127655Y233238*
X128109Y232613*
X128564Y232300*
X129473*
X129927Y232613*
X130382Y233238*
X130609Y233863*
X130836Y234800*
Y236363*
X130609Y237300*
X130382Y237925*
X129927Y238550*
X129473Y238863*
X128564*
X129245Y233550D02*
X130609Y231675D01*
X134245Y238863D02*
X133564Y238550D01*
X133109Y237613*
X132882Y236050*
Y235113*
X133109Y233550*
X133564Y232613*
X134245Y232300*
X134700*
X135382Y232613*
X135836Y233550*
X136064Y235113*
Y236050*
X135836Y237613*
X135382Y238550*
X134700Y238863*
X134245*
X161100Y193463D02*
Y186900D01*
Y193463D02*
X162691D01*
X163373Y193150*
X163827Y192525*
X164055Y191900*
X164282Y190963*
Y189400*
X164055Y188463*
X163827Y187838*
X163373Y187213*
X162691Y186900*
X161100*
X166327Y192213D02*
X166782Y192525D01*
X167464Y193463*
Y186900*
X196100Y193463D02*
Y186900D01*
Y193463D02*
X197691D01*
X198373Y193150*
X198827Y192525*
X199055Y191900*
X199282Y190963*
Y189400*
X199055Y188463*
X198827Y187838*
X198373Y187213*
X197691Y186900*
X196100*
X201555Y191900D02*
Y192213D01*
X201782Y192838*
X202009Y193150*
X202464Y193463*
X203373*
X203827Y193150*
X204055Y192838*
X204282Y192213*
Y191588*
X204055Y190963*
X203600Y190025*
X201327Y186900*
X204509*
X231100Y193463D02*
Y186900D01*
Y193463D02*
X232691D01*
X233373Y193150*
X233827Y192525*
X234055Y191900*
X234282Y190963*
Y189400*
X234055Y188463*
X233827Y187838*
X233373Y187213*
X232691Y186900*
X231100*
X236782Y193463D02*
X239282D01*
X237918Y190963*
X238600*
X239055Y190650*
X239282Y190338*
X239509Y189400*
Y188775*
X239282Y187838*
X238827Y187213*
X238145Y186900*
X237464*
X236782Y187213*
X236555Y187525*
X236327Y188150*
X266100Y193463D02*
Y186900D01*
Y193463D02*
X267691D01*
X268373Y193150*
X268827Y192525*
X269055Y191900*
X269282Y190963*
Y189400*
X269055Y188463*
X268827Y187838*
X268373Y187213*
X267691Y186900*
X266100*
X273600Y193463D02*
X271327Y189088D01*
X274736*
X273600Y193463D02*
Y186900D01*
X301100Y193463D02*
Y186900D01*
Y193463D02*
X302691D01*
X303373Y193150*
X303827Y192525*
X304055Y191900*
X304282Y190963*
Y189400*
X304055Y188463*
X303827Y187838*
X303373Y187213*
X302691Y186900*
X301100*
X309282Y193463D02*
X307009D01*
X306782Y190650*
X307009Y190963*
X307691Y191275*
X308373*
X309055Y190963*
X309509Y190338*
X309736Y189400*
X309509Y188775*
X309282Y187838*
X308827Y187213*
X308145Y186900*
X307464*
X306782Y187213*
X306555Y187525*
X306327Y188150*
X186437Y257000D02*
X191125D01*
X192062Y257227*
X192062D02*
X192687Y257682D01*
X192687D02*
X193000Y258364D01*
Y258818*
X192687Y259500*
X192687D02*
X192062Y259955D01*
X192062D02*
X191125Y260182D01*
X186437*
X187687Y262227D02*
X187375Y262682D01*
X186437Y263364*
X186437D02*
X193000D01*
X155100Y165663D02*
Y159100D01*
X158282Y165663D02*
Y159100D01*
X155100Y162538D02*
X158282D01*
X160327Y164413D02*
X160782Y164725D01*
X161464Y165663*
X161464D02*
Y159100D01*
X168100Y165663D02*
Y159100D01*
X171282Y165663D02*
Y159100D01*
X168100Y162538D02*
X171282D01*
X173555Y164100D02*
Y164413D01*
X173555D02*
X173782Y165038D01*
X173782D02*
X174009Y165350D01*
X174464Y165663*
X174464D02*
X175373D01*
X175373D02*
X175827Y165350D01*
X176055Y165038*
X176055D02*
X176282Y164413D01*
X176282D02*
Y163788D01*
X176282D02*
X176055Y163163D01*
X176055D02*
X175600Y162225D01*
X173327Y159100*
X176509*
X225100Y165663D02*
Y159100D01*
X228282Y165663D02*
Y159100D01*
X225100Y162538D02*
X228282D01*
X230782Y165663D02*
X233282D01*
X233282D02*
X231918Y163163D01*
X231918D02*
X232600D01*
X232600D02*
X233055Y162850D01*
X233282Y162538*
X233282D02*
X233509Y161600D01*
Y160975*
X233282Y160038*
X233282D02*
X232827Y159413D01*
X232827D02*
X232145Y159100D01*
X231464*
X230782Y159413*
X230782D02*
X230555Y159725D01*
X230327Y160350*
X260100Y165663D02*
Y159100D01*
X263282Y165663D02*
Y159100D01*
X260100Y162538D02*
X263282D01*
X267600Y165663D02*
X265327Y161288D01*
X265327D02*
X268736D01*
X267600Y165663D02*
Y159100D01*
X295100Y165663D02*
Y159100D01*
X298282Y165663D02*
Y159100D01*
X295100Y162538D02*
X298282D01*
X303282Y165663D02*
X301009D01*
X301009D02*
X300782Y162850D01*
X301009Y163163*
X301009D02*
X301691Y163475D01*
X302373*
X303055Y163163*
X303055D02*
X303509Y162538D01*
X303509D02*
X303736Y161600D01*
X303509Y160975*
X303282Y160038*
X303282D02*
X302827Y159413D01*
X302827D02*
X302145Y159100D01*
X301464*
X300782Y159413*
X300782D02*
X300555Y159725D01*
X300327Y160350*
X120100Y165663D02*
Y159100D01*
X123282Y165663D02*
Y159100D01*
X120100Y162538D02*
X123282D01*
X126691Y165663D02*
X126009Y165350D01*
X125555Y164413*
X125555D02*
X125327Y162850D01*
Y161913*
X125327D02*
X125555Y160350D01*
X126009Y159413*
X126009D02*
X126691Y159100D01*
X127145*
X127827Y159413*
X127827D02*
X128282Y160350D01*
X128509Y161913*
X128509D02*
Y162850D01*
X128282Y164413*
X128282D02*
X127827Y165350D01*
X127145Y165663*
X127145D02*
X126691D01*
X126100Y193463D02*
Y186900D01*
Y193463D02*
X127691D01*
X128373Y193150*
X128827Y192525*
X129055Y191900*
X129282Y190963*
Y189400*
X129055Y188463*
X128827Y187838*
X128373Y187213*
X127691Y186900*
X126100*
X132691Y193463D02*
X132009Y193150D01*
X131555Y192213*
X131327Y190650*
Y189713*
X131555Y188150*
X132009Y187213*
X132691Y186900*
X133145*
X133827Y187213*
X134282Y188150*
X134509Y189713*
Y190650*
X134282Y192213*
X133827Y193150*
X133145Y193463*
X132691*
X120200Y175563D02*
Y169000D01*
Y175563D02*
X122245D01*
X122245D02*
X122927Y175250D01*
X123155Y174938*
X123155D02*
X123382Y174313D01*
X123382D02*
Y173688D01*
X123382D02*
X123155Y173063D01*
X123155D02*
X122927Y172750D01*
X122245Y172438*
X122245D02*
X120200D01*
X121791D02*
X123382Y169000D01*
X126791Y175563D02*
X126109Y175250D01*
X125655Y174313*
X125655D02*
X125427Y172750D01*
Y171813*
X125427D02*
X125655Y170250D01*
X126109Y169313*
X126109D02*
X126791Y169000D01*
X127245*
X127927Y169313*
X127927D02*
X128382Y170250D01*
X128609Y171813*
X128609D02*
Y172750D01*
X128382Y174313*
X128382D02*
X127927Y175250D01*
X127245Y175563*
X127245D02*
X126791D01*
X155200D02*
Y169000D01*
Y175563D02*
X157245D01*
X157245D02*
X157927Y175250D01*
X158155Y174938*
X158155D02*
X158382Y174313D01*
X158382D02*
Y173688D01*
X158382D02*
X158155Y173063D01*
X158155D02*
X157927Y172750D01*
X157245Y172438*
X157245D02*
X155200D01*
X156791D02*
X158382Y169000D01*
X160427Y174313D02*
X160882Y174625D01*
X161564Y175563*
X161564D02*
Y169000D01*
X168100Y175462D02*
Y168900D01*
Y175462D02*
X170145D01*
X170145D02*
X170827Y175150D01*
X171055Y174837*
X171055D02*
X171282Y174212D01*
X171282D02*
Y173587D01*
X171282D02*
X171055Y172962D01*
X171055D02*
X170827Y172650D01*
X170145Y172337*
X170145D02*
X168100D01*
X169691D02*
X171282Y168900D01*
X173555Y173900D02*
Y174212D01*
X173555D02*
X173782Y174837D01*
X173782D02*
X174009Y175150D01*
X174464Y175462*
X174464D02*
X175373D01*
X175373D02*
X175827Y175150D01*
X176055Y174837*
X176055D02*
X176282Y174212D01*
X176282D02*
Y173587D01*
X176282D02*
X176055Y172962D01*
X176055D02*
X175600Y172025D01*
X173327Y168900*
X176509*
X225200Y175563D02*
Y169000D01*
Y175563D02*
X227245D01*
X227245D02*
X227927Y175250D01*
X228155Y174938*
X228155D02*
X228382Y174313D01*
X228382D02*
Y173688D01*
X228382D02*
X228155Y173063D01*
X228155D02*
X227927Y172750D01*
X227245Y172438*
X227245D02*
X225200D01*
X226791D02*
X228382Y169000D01*
X230882Y175563D02*
X233382D01*
X233382D02*
X232018Y173063D01*
X232018D02*
X232700D01*
X232700D02*
X233155Y172750D01*
X233382Y172438*
X233382D02*
X233609Y171500D01*
Y170875*
X233382Y169938*
X233382D02*
X232927Y169313D01*
X232927D02*
X232245Y169000D01*
X231564*
X230882Y169313*
X230882D02*
X230655Y169625D01*
X230427Y170250*
X260200Y175563D02*
Y169000D01*
Y175563D02*
X262245D01*
X262245D02*
X262927Y175250D01*
X263155Y174938*
X263155D02*
X263382Y174313D01*
X263382D02*
Y173688D01*
X263382D02*
X263155Y173063D01*
X263155D02*
X262927Y172750D01*
X262245Y172438*
X262245D02*
X260200D01*
X261791D02*
X263382Y169000D01*
X267700Y175563D02*
X265427Y171188D01*
X265427D02*
X268836D01*
X267700Y175563D02*
Y169000D01*
X295200Y175563D02*
Y169000D01*
Y175563D02*
X297245D01*
X297245D02*
X297927Y175250D01*
X298155Y174938*
X298155D02*
X298382Y174313D01*
X298382D02*
Y173688D01*
X298382D02*
X298155Y173063D01*
X298155D02*
X297927Y172750D01*
X297245Y172438*
X297245D02*
X295200D01*
X296791D02*
X298382Y169000D01*
X303382Y175563D02*
X301109D01*
X301109D02*
X300882Y172750D01*
X301109Y173063*
X301109D02*
X301791Y173375D01*
X302473*
X303155Y173063*
X303155D02*
X303609Y172438D01*
X303609D02*
X303836Y171500D01*
X303609Y170875*
X303382Y169938*
X303382D02*
X302927Y169313D01*
X302927D02*
X302245Y169000D01*
X301564*
X300882Y169313*
X300882D02*
X300655Y169625D01*
X300427Y170250*
X102000Y253250D02*
X102364Y253500D01*
X102909Y254250*
Y249000*
X104727Y253000D02*
Y253250D01*
X104909Y253750*
X105091Y254000*
X105455Y254250*
X106182*
X106545Y254000*
X106727Y253750*
X106909Y253250*
Y252750*
X106727Y252250*
X106364Y251500*
X104545Y249000*
X107091*
X108909Y249500D02*
X108727Y249250D01*
X108909Y249000*
X109091Y249250*
X108909Y249500*
X111818Y254250D02*
X111273Y254000D01*
X110909Y253250*
X110727Y252000*
Y251250*
X110909Y250000*
X111273Y249250*
X111818Y249000*
X112182*
X112727Y249250*
X113091Y250000*
X113273Y251250*
Y252000*
X113091Y253250*
X112727Y254000*
X112182Y254250*
X111818*
X114909D02*
X116364Y249000D01*
X117818Y254250D02*
X116364Y249000D01*
X123636Y254250D02*
Y249000D01*
Y254250D02*
X124909D01*
X125455Y254000*
X125818Y253500*
X126000Y253000*
X126182Y252250*
Y251000*
X126000Y250250*
X125818Y249750*
X125455Y249250*
X124909Y249000*
X123636*
X130545Y253000D02*
X130364Y253500D01*
X130000Y254000*
X129636Y254250*
X128909*
X128545Y254000*
X128182Y253500*
X128000Y253000*
X127818Y252250*
Y251000*
X128000Y250250*
X128182Y249750*
X128545Y249250*
X128909Y249000*
X129636*
X130000Y249250*
X130364Y249750*
X130545Y250250*
G54D37*
X138000Y242100D02*
X141900Y246000D01*
X138000D02*
Y204000D01*
X158000*
Y246000*
X138000*
X173000Y242100D02*
X176900Y246000D01*
X173000D02*
Y204000D01*
X193000*
Y246000*
X173000*
X208000Y242100D02*
X211900Y246000D01*
X208000D02*
Y204000D01*
X228000*
Y246000*
X208000*
X243000Y242100D02*
X246900Y246000D01*
X243000D02*
Y204000D01*
X263000*
Y246000*
X243000*
X278000Y242100D02*
X281900Y246000D01*
X278000D02*
Y204000D01*
X298000*
Y246000*
X278000*
X103000Y242100D02*
X106900Y246000D01*
X103000D02*
Y204000D01*
X123000*
Y246000*
X103000*
X185300Y253200D02*
X181400Y249300D01*
X185300D02*
Y291300D01*
X165300*
Y249300*
X185300*
G54D38*
X106483Y322443D02*
Y322631D01*
X106619Y323006*
X106756Y323193*
X107029Y323381*
X107574*
X107847Y323193*
X107983Y323006*
X108119Y322631*
Y322256*
X107983Y321881*
X107710Y321318*
X106347Y319443*
X108256*
X106960Y291631D02*
X107233Y291818D01*
X107642Y292381*
Y288443*
G54D39*
X199606Y256939D02*
Y264517D01*
X201992*
Y266683*
X199606*
Y274261*
X237794*
Y256939*
X199606*
G54D40*
X194719Y253000D02*
X197062D01*
X197062D02*
X197531Y253114D01*
X197844Y253341*
X198000Y253682*
Y253909*
X197844Y254250*
X197531Y254477*
X197062Y254591*
X197062D02*
X194719D01*
X195500Y255727D02*
X195344D01*
X195031Y255841*
X194875Y255955*
X194719Y256182*
Y256636*
X194875Y256864*
X195031Y256977*
X195344Y257091*
X195656*
X195969Y256977*
X196437Y256750*
X196437D02*
X198000Y255614D01*
Y257205*
X232000Y287625D02*
Y285000D01*
Y287625D02*
X232818D01*
X233091Y287500*
X233182Y287375*
X233273Y287125*
Y286875*
X233182Y286625*
X233091Y286500*
X232818Y286375*
X232000*
X232636D02*
X233273Y285000D01*
X235182Y287250D02*
X235091Y287500D01*
X234818Y287625*
X234636*
X234364Y287500*
X234182Y287125*
X234091Y286500*
Y285875*
X234182Y285375*
X234364Y285125*
X234636Y285000*
X234727*
X235000Y285125*
X235182Y285375*
X235273Y285750*
Y285875*
X235182Y286250*
X235000Y286500*
X234727Y286625*
X234636*
X234364Y286500*
X234182Y286250*
X234091Y285875*
X227000Y287625D02*
Y285000D01*
Y287625D02*
X227818D01*
X228091Y287500*
X228182Y287375*
X228273Y287125*
Y286875*
X228182Y286625*
X228091Y286500*
X227818Y286375*
X227000*
X227636D02*
X228273Y285000D01*
X230364Y287625D02*
X229455Y285000D01*
X229091Y287625D02*
X230364D01*
G74*
X0Y0D02*
M02*
