%
T1C.037F197S550
X011810Y018900
X010810Y018900
X015310Y018900
X014310Y018900
X017810Y018900
X018810Y018900
X021310Y018900
X022310Y018900
X024810Y018900
X025810Y018900
X028310Y018900
X029310Y018900
T2C.04F139S550
X010787Y030079
X011787Y030079
X012787Y030079
X013787Y030079
X014787Y030079
X012787Y031079
X011787Y031079
X013787Y031079
X010787Y031079
X014787Y031079
X015787Y031079
X016787Y031079
X017787Y031079
X018787Y031079
X019787Y031079
X016787Y030079
X018787Y030079
X015787Y030079
X019787Y030079
X017787Y030079
X020787Y030079
X021787Y030079
X022787Y030079
X021787Y031079
X020787Y031079
X022787Y031079
T3C.041F139S550
X011300Y021500
X014800Y021500
X014800Y022500
X011300Y022500
X011300Y023500
X014800Y023500
X017530Y028030
X017530Y027030
X017530Y026030
X018300Y023500
X018300Y022500
X018300Y021500
X021800Y021500
X025300Y021500
X025300Y022500
X021800Y022500
X021800Y023500
X025300Y023500
X028800Y023500
X028800Y022500
X028800Y021500
T4C.051F107S550
X011300Y015130
X012680Y015130
X014800Y015130
X016180Y015130
X018300Y015130
X019680Y015130
X021800Y015130
X023180Y015130
X025300Y015130
X026680Y015130
X028800Y015130
X030180Y015130
T5C.1142F069S658
X020039Y017087
T6C.125F035S794
X014200Y025520
X015380Y027410
X013020Y027410
M30
