*
*
G04 PADS 9.4.1 Build Number: 494907 generated Gerber (RS-274-X) file*
G04 PC Version=2.1*
*
%IN "PiLightControl.pcb"*%
*
%MOIN*%
*
%FSLAX35Y35*%
*
*
*
*
G04 PC Standard Apertures*
*
*
G04 Thermal Relief Aperture macro.*
%AMTER*
1,1,$1,0,0*
1,0,$1-$2,0,0*
21,0,$3,$4,0,0,45*
21,0,$3,$4,0,0,135*
%
*
*
G04 Annular Aperture macro.*
%AMANN*
1,1,$1,0,0*
1,0,$2,0,0*
%
*
*
G04 Odd Aperture macro.*
%AMODD*
1,1,$1,0,0*
1,0,$1-0.005,0,0*
%
*
*
G04 PC Custom Aperture Macros*
*
*
*
*
*
*
G04 PC Aperture Table*
*
%ADD010C,0.001*%
%ADD011R,0.065X0.065*%
%ADD012C,0.065*%
%ADD013C,0.06*%
%ADD014C,0.175*%
%ADD015C,0.081*%
%ADD016R,0.01181X0.02953*%
%ADD017C,0.2*%
%ADD018R,0.067X0.0355*%
%ADD019R,0.0355X0.067*%
%ADD020C,0.03*%
%ADD021C,0.02*%
%ADD022C,0.01*%
%ADD023C,0.011*%
%ADD024C,0.015*%
%ADD025C,0.04*%
*
*
*
*
G04 PC Circuitry*
G04 Layer Name PiLightControl.pcb - circuitry*
%LPD*%
*
*
G04 PC Custom Flashes*
G04 Layer Name PiLightControl.pcb - flashes*
%LPD*%
*
*
G04 PC Circuitry*
G04 Layer Name PiLightControl.pcb - circuitry*
%LPD*%
*
G54D10*
G54D11*
G01X148000Y235000D03*
X183000D03*
X218000D03*
X253000D03*
X288000D03*
X113000D03*
X175300Y260300D03*
G54D12*
X148000Y225000D03*
Y215000D03*
X183000Y225000D03*
Y215000D03*
X218000Y225000D03*
Y215000D03*
X253000Y225000D03*
Y215000D03*
X288000Y225000D03*
Y215000D03*
X113000Y225000D03*
Y215000D03*
X175300Y270300D03*
Y280300D03*
G54D13*
X153100Y189000D03*
X143100D03*
X188100D03*
X178100D03*
X223100D03*
X213100D03*
X258100D03*
X248100D03*
X293100D03*
X283100D03*
X107874Y300787D03*
Y310787D03*
X117874Y300787D03*
Y310787D03*
X127874Y300787D03*
Y310787D03*
X137874Y300787D03*
Y310787D03*
X147874Y300787D03*
Y310787D03*
X157874Y300787D03*
Y310787D03*
X167874Y300787D03*
Y310787D03*
X177874Y300787D03*
Y310787D03*
X187874Y300787D03*
Y310787D03*
X197874Y300787D03*
Y310787D03*
X207874Y300787D03*
Y310787D03*
X217874Y300787D03*
Y310787D03*
X227874Y300787D03*
Y310787D03*
X118100Y189000D03*
X108100D03*
X118100D02*
X126800D01*
Y151300*
X188100Y189000D02*
X191750Y192650D01*
X153100Y189000D02*
Y189500D01*
X161800*
Y151300D02*
Y189500D01*
X293100Y189000D02*
Y189300D01*
X301800*
X258100Y189000D02*
X266800D01*
X223100D02*
Y189200D01*
X231800*
X266800Y151300D02*
Y189000D01*
X231800Y151300D02*
Y189200D01*
X301800Y151300D02*
Y189300D01*
X113000Y225000D02*
X119000D01*
X126800Y217200*
Y189000*
X218000Y225000D02*
X224000D01*
X231800Y217200*
Y189200*
X183000Y225000D02*
X189000D01*
X191750Y222250*
Y192650*
X148000Y225000D02*
X154000D01*
X161800Y217200*
Y189500*
X288000Y225000D02*
X293000D01*
X301800Y216200*
Y189300*
X253000Y225000D02*
X258000D01*
X266800Y216200*
Y189000*
G54D14*
X153800Y274100D03*
X130200D03*
X142000Y255200D03*
G54D15*
X148000Y151300D03*
X161800D03*
X183000D03*
X196800D03*
X218000D03*
X231800D03*
X253000D03*
X266800D03*
X288000D03*
X301800D03*
X113000D03*
X126800D03*
G54D16*
X202066Y254084D03*
X204625D03*
X207184D03*
X209743D03*
X212302D03*
X214861D03*
X217420D03*
X219980D03*
X222539D03*
X225098D03*
X227657D03*
X230216D03*
X232775D03*
X235334D03*
Y277116D03*
X232775D03*
X230216D03*
X227657D03*
X225098D03*
X222539D03*
X219980D03*
X217420D03*
X214861D03*
X212302D03*
X209743D03*
X207184D03*
X204625D03*
X202066D03*
G54D17*
X200394Y170866D03*
G54D18*
X113000Y162391D03*
Y173809D03*
X148000Y162391D03*
Y173809D03*
X183000Y162391D03*
Y173809D03*
X218000Y162391D03*
Y173809D03*
X253000Y162391D03*
Y173809D03*
X288000Y162391D03*
Y173809D03*
G54D19*
X219609Y285900D03*
X208191D03*
X189195Y285875D03*
X200613D03*
G54D20*
X108100Y189000D02*
X113050Y184050D01*
X113000Y173809D02*
X113050D01*
Y184050*
X113000Y151300D02*
Y162391D01*
X213100Y189000D02*
X218050Y184050D01*
X178100Y189000D02*
X183050Y184050D01*
X143100Y189000D02*
X148050Y184050D01*
X218000Y173809D02*
X218050D01*
Y184050*
X183000Y173809D02*
X183050D01*
Y184050*
X148000Y173809D02*
X148050D01*
Y184050*
X218000Y151300D02*
Y162391D01*
X183000Y151300D02*
Y162391D01*
X148000Y151300D02*
Y162391D01*
X283100Y189000D02*
X288050Y184050D01*
X248100Y189000D02*
X253050Y184050D01*
X288000Y173809D02*
X288050D01*
Y184050*
X253000Y173809D02*
X253050D01*
Y184050*
X288000Y151300D02*
Y162391D01*
X253000Y151300D02*
Y162391D01*
G54D21*
X102874Y298716D02*
X114590Y287000D01*
X160787*
X167487Y280300*
X175300*
X102874Y298716D02*
Y305787D01*
X107874Y310787*
Y300787D02*
X118661Y290000D01*
X171662*
X175788Y285875*
X189195*
G54D22*
X113000Y235000D02*
X138191D01*
X151291Y248100*
X210506*
X214861Y252455*
Y254084*
X209743Y255000D02*
X212302D01*
Y254084*
X202106Y274100D02*
X214822D01*
X214861Y274139*
Y277116*
X200613Y285875D02*
Y284300D01*
X204625Y280287*
Y277116*
X189195Y285875D02*
Y284300D01*
X199395Y274100*
X202106*
X202066Y277116D02*
Y274139D01*
X202106Y274100*
X207184Y277116D02*
Y284942D01*
X208142Y285900*
X208191*
X209743Y277116D02*
X212302D01*
Y285840*
X227249Y300787*
X227874*
X214861Y277116D02*
Y280092D01*
X219351Y284582*
X219609Y284839*
Y285900*
X212302Y254084D02*
Y255713D01*
X214689Y258100*
X235334*
X209743Y254084D02*
Y255000D01*
X207184Y254084D02*
Y255061D01*
X209743*
Y255000*
X204625Y254084D02*
Y255061D01*
X207184*
Y254084*
X202066D02*
Y255061D01*
X204625*
Y254084*
X127874Y300787D02*
X133261Y295400D01*
X200266*
X208191Y287475*
Y285900*
X117874Y300787D02*
X125661Y293000D01*
X195062*
X200613Y287450*
Y285875*
G54D23*
X218000Y235000D02*
Y243200D01*
X222539Y247739*
Y254084*
X183000Y235000D02*
X203922D01*
X219980Y251058*
Y254084*
X148000Y235000D02*
X163600D01*
X171600Y243000*
X208447*
X217420Y251974*
Y254084*
X227657D02*
Y252384D01*
X234841Y245200*
X262200*
X272400Y235000*
X288000*
X225098Y254084D02*
Y251058D01*
X241156Y235000*
X253000*
G54D24*
X235334Y258100D02*
Y265192D01*
X237674Y267533*
Y290987*
X235334Y254084D02*
Y258100D01*
X227874Y300787D02*
X237674Y290987D01*
G54D25*
X107874Y310787D02*
X117874D01*
X0Y0D02*
M02*
